<svg width="16" height="16" fill="currentColor" viewBox="0 0 24 24" transform="   rotate(270) " id="injected-svg"><!--Boxicons v3.0 https://boxicons.com | License  https://docs.boxicons.com/free--><path d="M12 2A3 3 0 1 0 12 8 3 3 0 1 0 12 2z"></path><path d="M19 5A3 3 0 1 0 19 11 3 3 0 1 0 19 5z"></path><path d="M5 5A3 3 0 1 0 5 11 3 3 0 1 0 5 5z"></path><path d="m8.06,11.53c-.37.37-.84.63-1.35.76-2.18.55-3.71,2.5-3.71,4.75,0,1.66.83,3.19,2.22,4.1.81.53,1.74.8,2.68.8.67,0,1.33-.14,1.96-.41l.98-.43c.74-.32,1.58-.32,2.32,0l.98.43c1.52.66,3.25.52,4.64-.39,1.39-.91,2.22-2.44,2.22-4.1,0-2.25-1.53-4.2-3.71-4.75-.51-.13-.97-.39-1.35-.76l-.48-.48c-.92-.92-2.15-1.43-3.46-1.43s-2.54.51-3.46,1.43l-.48.48Z"></path></svg>